<mxfile host="app.diagrams.net" modified="2023-10-02T22:37:18.922Z" agent="Mozilla/5.0 (Windows NT 10.0; Win64; x64) AppleWebKit/537.36 (KHTML, like Gecko) Chrome/117.0.0.0 Safari/537.36" etag="kr4Brd9CWqquY4RPvyz8" version="22.0.0" type="device" pages="3">
  <diagram name="Page-1" id="ZdIfSjGDqMQSh1OmlDca">
    <mxGraphModel dx="880" dy="478" grid="1" gridSize="10" guides="1" tooltips="1" connect="1" arrows="1" fold="1" page="1" pageScale="1" pageWidth="850" pageHeight="1100" math="0" shadow="0">
      <root>
        <mxCell id="0" />
        <mxCell id="1" parent="0" />
        <mxCell id="SFs5PkhKJ_vCjK82pjbT-3" style="edgeStyle=orthogonalEdgeStyle;rounded=0;orthogonalLoop=1;jettySize=auto;html=1;" parent="1" edge="1">
          <mxGeometry relative="1" as="geometry">
            <mxPoint x="610" y="240" as="targetPoint" />
            <mxPoint x="470" y="240" as="sourcePoint" />
            <Array as="points">
              <mxPoint x="490" y="240" />
              <mxPoint x="490" y="240" />
            </Array>
          </mxGeometry>
        </mxCell>
        <mxCell id="SFs5PkhKJ_vCjK82pjbT-1" value="FLIPKART" style="ellipse;whiteSpace=wrap;html=1;aspect=fixed;" parent="1" vertex="1">
          <mxGeometry x="350" y="180" width="120" height="120" as="geometry" />
        </mxCell>
        <mxCell id="SFs5PkhKJ_vCjK82pjbT-4" value="USER" style="rounded=1;whiteSpace=wrap;html=1;" parent="1" vertex="1">
          <mxGeometry x="610" y="210" width="120" height="60" as="geometry" />
        </mxCell>
        <mxCell id="SFs5PkhKJ_vCjK82pjbT-5" value="" style="endArrow=classic;html=1;rounded=0;exitX=0;exitY=0.5;exitDx=0;exitDy=0;" parent="1" source="SFs5PkhKJ_vCjK82pjbT-1" edge="1">
          <mxGeometry width="50" height="50" relative="1" as="geometry">
            <mxPoint x="400" y="280" as="sourcePoint" />
            <mxPoint x="160" y="240" as="targetPoint" />
          </mxGeometry>
        </mxCell>
        <mxCell id="SFs5PkhKJ_vCjK82pjbT-6" value="" style="endArrow=classic;html=1;rounded=0;exitX=0.5;exitY=1;exitDx=0;exitDy=0;" parent="1" source="SFs5PkhKJ_vCjK82pjbT-1" edge="1">
          <mxGeometry width="50" height="50" relative="1" as="geometry">
            <mxPoint x="400" y="280" as="sourcePoint" />
            <mxPoint x="410" y="420" as="targetPoint" />
          </mxGeometry>
        </mxCell>
        <mxCell id="SFs5PkhKJ_vCjK82pjbT-7" value="VISITOR" style="rounded=1;whiteSpace=wrap;html=1;" parent="1" vertex="1">
          <mxGeometry x="350" y="420" width="120" height="60" as="geometry" />
        </mxCell>
        <mxCell id="SFs5PkhKJ_vCjK82pjbT-8" value="ADMIN" style="rounded=1;whiteSpace=wrap;html=1;" parent="1" vertex="1">
          <mxGeometry x="40" y="210" width="120" height="60" as="geometry" />
        </mxCell>
        <mxCell id="SFs5PkhKJ_vCjK82pjbT-9" value="" style="endArrow=classic;html=1;rounded=0;exitX=0;exitY=0.25;exitDx=0;exitDy=0;entryX=0.975;entryY=0.375;entryDx=0;entryDy=0;entryPerimeter=0;" parent="1" source="SFs5PkhKJ_vCjK82pjbT-4" target="SFs5PkhKJ_vCjK82pjbT-1" edge="1">
          <mxGeometry width="50" height="50" relative="1" as="geometry">
            <mxPoint x="400" y="280" as="sourcePoint" />
            <mxPoint x="460" y="220" as="targetPoint" />
            <Array as="points" />
          </mxGeometry>
        </mxCell>
        <mxCell id="SFs5PkhKJ_vCjK82pjbT-11" value="" style="endArrow=classic;html=1;rounded=0;exitX=1;exitY=0.25;exitDx=0;exitDy=0;" parent="1" source="SFs5PkhKJ_vCjK82pjbT-8" edge="1">
          <mxGeometry width="50" height="50" relative="1" as="geometry">
            <mxPoint x="400" y="280" as="sourcePoint" />
            <mxPoint x="350" y="225" as="targetPoint" />
          </mxGeometry>
        </mxCell>
        <mxCell id="SFs5PkhKJ_vCjK82pjbT-12" value="" style="endArrow=classic;html=1;rounded=0;exitX=0.667;exitY=-0.05;exitDx=0;exitDy=0;exitPerimeter=0;entryX=0.683;entryY=1;entryDx=0;entryDy=0;entryPerimeter=0;" parent="1" source="SFs5PkhKJ_vCjK82pjbT-7" target="SFs5PkhKJ_vCjK82pjbT-1" edge="1">
          <mxGeometry width="50" height="50" relative="1" as="geometry">
            <mxPoint x="400" y="280" as="sourcePoint" />
            <mxPoint x="450" y="230" as="targetPoint" />
          </mxGeometry>
        </mxCell>
        <mxCell id="SFs5PkhKJ_vCjK82pjbT-13" value="request" style="text;html=1;align=center;verticalAlign=middle;resizable=0;points=[];autosize=1;strokeColor=none;fillColor=none;" parent="1" vertex="1">
          <mxGeometry x="210" y="198" width="60" height="30" as="geometry" />
        </mxCell>
        <mxCell id="SFs5PkhKJ_vCjK82pjbT-15" value="login" style="text;html=1;align=center;verticalAlign=middle;resizable=0;points=[];autosize=1;strokeColor=none;fillColor=none;" parent="1" vertex="1">
          <mxGeometry x="505" y="198" width="50" height="30" as="geometry" />
        </mxCell>
        <mxCell id="SFs5PkhKJ_vCjK82pjbT-16" value="response" style="text;html=1;align=center;verticalAlign=middle;resizable=0;points=[];autosize=1;strokeColor=none;fillColor=none;" parent="1" vertex="1">
          <mxGeometry x="495" y="238" width="70" height="30" as="geometry" />
        </mxCell>
        <mxCell id="SFs5PkhKJ_vCjK82pjbT-17" value="response" style="text;html=1;align=center;verticalAlign=middle;resizable=0;points=[];autosize=1;strokeColor=none;fillColor=none;" parent="1" vertex="1">
          <mxGeometry x="340" y="340" width="70" height="30" as="geometry" />
        </mxCell>
        <mxCell id="SFs5PkhKJ_vCjK82pjbT-19" value="visit" style="text;html=1;align=center;verticalAlign=middle;resizable=0;points=[];autosize=1;strokeColor=none;fillColor=none;" parent="1" vertex="1">
          <mxGeometry x="430" y="340" width="40" height="30" as="geometry" />
        </mxCell>
        <mxCell id="SFs5PkhKJ_vCjK82pjbT-20" value="response" style="text;html=1;align=center;verticalAlign=middle;resizable=0;points=[];autosize=1;strokeColor=none;fillColor=none;" parent="1" vertex="1">
          <mxGeometry x="205" y="238" width="70" height="30" as="geometry" />
        </mxCell>
        <mxCell id="SFs5PkhKJ_vCjK82pjbT-21" value="ZERO LEVEL DFD" style="text;html=1;align=center;verticalAlign=middle;resizable=0;points=[];autosize=1;strokeColor=none;fillColor=none;" parent="1" vertex="1">
          <mxGeometry x="345" y="100" width="130" height="30" as="geometry" />
        </mxCell>
      </root>
    </mxGraphModel>
  </diagram>
  <diagram id="Y4EPolfN3ie5JaTUOJuu" name="Page-2">
    <mxGraphModel dx="880" dy="478" grid="1" gridSize="10" guides="1" tooltips="1" connect="1" arrows="1" fold="1" page="1" pageScale="1" pageWidth="850" pageHeight="1100" math="0" shadow="0">
      <root>
        <mxCell id="0" />
        <mxCell id="1" parent="0" />
        <mxCell id="ZbjjQLHiwqAhtuJhAiKU-1" value="ADMIN" style="rounded=0;whiteSpace=wrap;html=1;" parent="1" vertex="1">
          <mxGeometry x="150" y="130" width="120" height="60" as="geometry" />
        </mxCell>
        <mxCell id="ZbjjQLHiwqAhtuJhAiKU-2" value="add customers" style="ellipse;whiteSpace=wrap;html=1;aspect=fixed;" parent="1" vertex="1">
          <mxGeometry x="400" y="210" width="80" height="80" as="geometry" />
        </mxCell>
        <mxCell id="ZbjjQLHiwqAhtuJhAiKU-3" value="product management" style="ellipse;whiteSpace=wrap;html=1;aspect=fixed;" parent="1" vertex="1">
          <mxGeometry x="400" y="490" width="80" height="80" as="geometry" />
        </mxCell>
        <mxCell id="ZbjjQLHiwqAhtuJhAiKU-4" value="update" style="ellipse;whiteSpace=wrap;html=1;aspect=fixed;" parent="1" vertex="1">
          <mxGeometry x="400" y="390" width="80" height="80" as="geometry" />
        </mxCell>
        <mxCell id="ZbjjQLHiwqAhtuJhAiKU-5" value="details" style="ellipse;whiteSpace=wrap;html=1;aspect=fixed;" parent="1" vertex="1">
          <mxGeometry x="400" y="300" width="80" height="80" as="geometry" />
        </mxCell>
        <mxCell id="ZbjjQLHiwqAhtuJhAiKU-6" value="Login" style="ellipse;whiteSpace=wrap;html=1;aspect=fixed;" parent="1" vertex="1">
          <mxGeometry x="400" y="120" width="80" height="80" as="geometry" />
        </mxCell>
        <mxCell id="ZbjjQLHiwqAhtuJhAiKU-7" value="product tabe" style="rounded=0;whiteSpace=wrap;html=1;" parent="1" vertex="1">
          <mxGeometry x="680" y="480" width="120" height="60" as="geometry" />
        </mxCell>
        <mxCell id="ZbjjQLHiwqAhtuJhAiKU-8" value="product table" style="rounded=0;whiteSpace=wrap;html=1;" parent="1" vertex="1">
          <mxGeometry x="680" y="390" width="120" height="60" as="geometry" />
        </mxCell>
        <mxCell id="ZbjjQLHiwqAhtuJhAiKU-9" value="details table" style="rounded=0;whiteSpace=wrap;html=1;" parent="1" vertex="1">
          <mxGeometry x="670" y="300" width="120" height="60" as="geometry" />
        </mxCell>
        <mxCell id="ZbjjQLHiwqAhtuJhAiKU-10" value="customer table" style="rounded=0;whiteSpace=wrap;html=1;" parent="1" vertex="1">
          <mxGeometry x="680" y="210" width="120" height="60" as="geometry" />
        </mxCell>
        <mxCell id="ZbjjQLHiwqAhtuJhAiKU-11" value="credentials" style="rounded=0;whiteSpace=wrap;html=1;" parent="1" vertex="1">
          <mxGeometry x="680" y="120" width="120" height="60" as="geometry" />
        </mxCell>
        <mxCell id="ZbjjQLHiwqAhtuJhAiKU-12" value="" style="endArrow=classic;html=1;rounded=0;exitX=0.108;exitY=1.05;exitDx=0;exitDy=0;exitPerimeter=0;entryX=0;entryY=0.5;entryDx=0;entryDy=0;" parent="1" source="ZbjjQLHiwqAhtuJhAiKU-1" target="ZbjjQLHiwqAhtuJhAiKU-3" edge="1">
          <mxGeometry width="50" height="50" relative="1" as="geometry">
            <mxPoint x="450" y="370" as="sourcePoint" />
            <mxPoint x="500" y="320" as="targetPoint" />
            <Array as="points">
              <mxPoint x="160" y="530" />
            </Array>
          </mxGeometry>
        </mxCell>
        <mxCell id="ZbjjQLHiwqAhtuJhAiKU-13" value="" style="endArrow=classic;html=1;rounded=0;exitX=-0.025;exitY=0.375;exitDx=0;exitDy=0;exitPerimeter=0;entryX=0.175;entryY=1.1;entryDx=0;entryDy=0;entryPerimeter=0;" parent="1" source="ZbjjQLHiwqAhtuJhAiKU-3" target="ZbjjQLHiwqAhtuJhAiKU-1" edge="1">
          <mxGeometry width="50" height="50" relative="1" as="geometry">
            <mxPoint x="450" y="370" as="sourcePoint" />
            <mxPoint x="500" y="320" as="targetPoint" />
            <Array as="points">
              <mxPoint x="170" y="520" />
            </Array>
          </mxGeometry>
        </mxCell>
        <mxCell id="ZbjjQLHiwqAhtuJhAiKU-14" value="" style="endArrow=classic;html=1;rounded=0;exitX=0.333;exitY=1.1;exitDx=0;exitDy=0;exitPerimeter=0;entryX=0;entryY=0.75;entryDx=0;entryDy=0;entryPerimeter=0;" parent="1" edge="1">
          <mxGeometry width="50" height="50" relative="1" as="geometry">
            <mxPoint x="189.96000000000004" y="190" as="sourcePoint" />
            <mxPoint x="400" y="444" as="targetPoint" />
            <Array as="points">
              <mxPoint x="190" y="444" />
            </Array>
          </mxGeometry>
        </mxCell>
        <mxCell id="ZbjjQLHiwqAhtuJhAiKU-15" value="" style="endArrow=classic;html=1;rounded=0;exitX=0;exitY=0.5;exitDx=0;exitDy=0;entryX=0.5;entryY=1;entryDx=0;entryDy=0;" parent="1" source="ZbjjQLHiwqAhtuJhAiKU-4" target="ZbjjQLHiwqAhtuJhAiKU-1" edge="1">
          <mxGeometry width="50" height="50" relative="1" as="geometry">
            <mxPoint x="450" y="370" as="sourcePoint" />
            <mxPoint x="500" y="320" as="targetPoint" />
            <Array as="points">
              <mxPoint x="210" y="430" />
            </Array>
          </mxGeometry>
        </mxCell>
        <mxCell id="ZbjjQLHiwqAhtuJhAiKU-17" value="" style="endArrow=classic;html=1;rounded=0;exitX=0.625;exitY=1.067;exitDx=0;exitDy=0;exitPerimeter=0;entryX=-0.037;entryY=0.688;entryDx=0;entryDy=0;entryPerimeter=0;" parent="1" source="ZbjjQLHiwqAhtuJhAiKU-1" target="ZbjjQLHiwqAhtuJhAiKU-5" edge="1">
          <mxGeometry width="50" height="50" relative="1" as="geometry">
            <mxPoint x="450" y="370" as="sourcePoint" />
            <mxPoint x="500" y="320" as="targetPoint" />
            <Array as="points">
              <mxPoint x="225" y="355" />
            </Array>
          </mxGeometry>
        </mxCell>
        <mxCell id="ZbjjQLHiwqAhtuJhAiKU-18" value="" style="endArrow=classic;html=1;rounded=0;entryX=0.75;entryY=1;entryDx=0;entryDy=0;exitX=0;exitY=0.5;exitDx=0;exitDy=0;" parent="1" source="ZbjjQLHiwqAhtuJhAiKU-5" target="ZbjjQLHiwqAhtuJhAiKU-1" edge="1">
          <mxGeometry width="50" height="50" relative="1" as="geometry">
            <mxPoint x="450" y="370" as="sourcePoint" />
            <mxPoint x="500" y="320" as="targetPoint" />
            <Array as="points">
              <mxPoint x="240" y="340" />
            </Array>
          </mxGeometry>
        </mxCell>
        <mxCell id="ZbjjQLHiwqAhtuJhAiKU-19" value="" style="endArrow=classic;html=1;rounded=0;exitX=0.875;exitY=1.067;exitDx=0;exitDy=0;exitPerimeter=0;" parent="1" source="ZbjjQLHiwqAhtuJhAiKU-1" edge="1">
          <mxGeometry width="50" height="50" relative="1" as="geometry">
            <mxPoint x="450" y="370" as="sourcePoint" />
            <mxPoint x="400" y="270" as="targetPoint" />
            <Array as="points">
              <mxPoint x="260" y="270" />
            </Array>
          </mxGeometry>
        </mxCell>
        <mxCell id="ZbjjQLHiwqAhtuJhAiKU-20" value="" style="endArrow=classic;html=1;rounded=0;exitX=-0.037;exitY=0.65;exitDx=0;exitDy=0;entryX=0.95;entryY=1.067;entryDx=0;entryDy=0;entryPerimeter=0;exitPerimeter=0;" parent="1" source="ZbjjQLHiwqAhtuJhAiKU-2" target="ZbjjQLHiwqAhtuJhAiKU-1" edge="1">
          <mxGeometry width="50" height="50" relative="1" as="geometry">
            <mxPoint x="450" y="370" as="sourcePoint" />
            <mxPoint x="270" y="200" as="targetPoint" />
            <Array as="points">
              <mxPoint x="270" y="260" />
            </Array>
          </mxGeometry>
        </mxCell>
        <mxCell id="ZbjjQLHiwqAhtuJhAiKU-21" value="" style="endArrow=classic;html=1;rounded=0;exitX=1;exitY=0.75;exitDx=0;exitDy=0;entryX=-0.012;entryY=0.75;entryDx=0;entryDy=0;entryPerimeter=0;" parent="1" source="ZbjjQLHiwqAhtuJhAiKU-1" target="ZbjjQLHiwqAhtuJhAiKU-6" edge="1">
          <mxGeometry width="50" height="50" relative="1" as="geometry">
            <mxPoint x="450" y="370" as="sourcePoint" />
            <mxPoint x="500" y="320" as="targetPoint" />
          </mxGeometry>
        </mxCell>
        <mxCell id="ZbjjQLHiwqAhtuJhAiKU-22" value="" style="endArrow=classic;html=1;rounded=0;exitX=0;exitY=0.5;exitDx=0;exitDy=0;" parent="1" source="ZbjjQLHiwqAhtuJhAiKU-6" edge="1">
          <mxGeometry width="50" height="50" relative="1" as="geometry">
            <mxPoint x="450" y="370" as="sourcePoint" />
            <mxPoint x="280" y="160" as="targetPoint" />
          </mxGeometry>
        </mxCell>
        <mxCell id="ZbjjQLHiwqAhtuJhAiKU-23" value="" style="endArrow=classic;html=1;rounded=0;entryX=0;entryY=0.5;entryDx=0;entryDy=0;exitX=0.963;exitY=0.325;exitDx=0;exitDy=0;exitPerimeter=0;" parent="1" source="ZbjjQLHiwqAhtuJhAiKU-6" target="ZbjjQLHiwqAhtuJhAiKU-11" edge="1">
          <mxGeometry width="50" height="50" relative="1" as="geometry">
            <mxPoint x="450" y="360" as="sourcePoint" />
            <mxPoint x="500" y="310" as="targetPoint" />
          </mxGeometry>
        </mxCell>
        <mxCell id="ZbjjQLHiwqAhtuJhAiKU-24" value="" style="endArrow=classic;html=1;rounded=0;entryX=1.038;entryY=0.675;entryDx=0;entryDy=0;entryPerimeter=0;exitX=-0.017;exitY=0.9;exitDx=0;exitDy=0;exitPerimeter=0;" parent="1" source="ZbjjQLHiwqAhtuJhAiKU-11" target="ZbjjQLHiwqAhtuJhAiKU-6" edge="1">
          <mxGeometry width="50" height="50" relative="1" as="geometry">
            <mxPoint x="450" y="360" as="sourcePoint" />
            <mxPoint x="500" y="310" as="targetPoint" />
          </mxGeometry>
        </mxCell>
        <mxCell id="ZbjjQLHiwqAhtuJhAiKU-26" value="" style="endArrow=classic;html=1;rounded=0;entryX=0;entryY=0.5;entryDx=0;entryDy=0;exitX=0.963;exitY=0.325;exitDx=0;exitDy=0;exitPerimeter=0;" parent="1" edge="1">
          <mxGeometry width="50" height="50" relative="1" as="geometry">
            <mxPoint x="477" y="238" as="sourcePoint" />
            <mxPoint x="680" y="242" as="targetPoint" />
          </mxGeometry>
        </mxCell>
        <mxCell id="ZbjjQLHiwqAhtuJhAiKU-27" value="" style="endArrow=classic;html=1;rounded=0;entryX=0;entryY=0.5;entryDx=0;entryDy=0;exitX=0.963;exitY=0.325;exitDx=0;exitDy=0;exitPerimeter=0;" parent="1" edge="1">
          <mxGeometry width="50" height="50" relative="1" as="geometry">
            <mxPoint x="477" y="328" as="sourcePoint" />
            <mxPoint x="680" y="332" as="targetPoint" />
            <Array as="points" />
          </mxGeometry>
        </mxCell>
        <mxCell id="ZbjjQLHiwqAhtuJhAiKU-28" value="" style="endArrow=classic;html=1;rounded=0;entryX=0;entryY=0.5;entryDx=0;entryDy=0;exitX=0.963;exitY=0.325;exitDx=0;exitDy=0;exitPerimeter=0;" parent="1" edge="1">
          <mxGeometry width="50" height="50" relative="1" as="geometry">
            <mxPoint x="480" y="520" as="sourcePoint" />
            <mxPoint x="683" y="524" as="targetPoint" />
          </mxGeometry>
        </mxCell>
        <mxCell id="ZbjjQLHiwqAhtuJhAiKU-29" value="" style="endArrow=classic;html=1;rounded=0;entryX=0;entryY=0.5;entryDx=0;entryDy=0;exitX=0.963;exitY=0.325;exitDx=0;exitDy=0;exitPerimeter=0;" parent="1" edge="1">
          <mxGeometry width="50" height="50" relative="1" as="geometry">
            <mxPoint x="477" y="420" as="sourcePoint" />
            <mxPoint x="680" y="424" as="targetPoint" />
          </mxGeometry>
        </mxCell>
        <mxCell id="ZbjjQLHiwqAhtuJhAiKU-30" value="" style="endArrow=classic;html=1;rounded=0;entryX=1.038;entryY=0.675;entryDx=0;entryDy=0;entryPerimeter=0;exitX=-0.017;exitY=0.9;exitDx=0;exitDy=0;exitPerimeter=0;" parent="1" edge="1">
          <mxGeometry width="50" height="50" relative="1" as="geometry">
            <mxPoint x="675" y="260" as="sourcePoint" />
            <mxPoint x="480" y="260" as="targetPoint" />
          </mxGeometry>
        </mxCell>
        <mxCell id="ZbjjQLHiwqAhtuJhAiKU-31" value="" style="endArrow=classic;html=1;rounded=0;entryX=1.038;entryY=0.675;entryDx=0;entryDy=0;entryPerimeter=0;exitX=0;exitY=0.5;exitDx=0;exitDy=0;" parent="1" source="ZbjjQLHiwqAhtuJhAiKU-7" edge="1">
          <mxGeometry width="50" height="50" relative="1" as="geometry">
            <mxPoint x="665" y="509.5" as="sourcePoint" />
            <mxPoint x="470" y="509.5" as="targetPoint" />
          </mxGeometry>
        </mxCell>
        <mxCell id="ZbjjQLHiwqAhtuJhAiKU-32" value="" style="endArrow=classic;html=1;rounded=0;entryX=1.038;entryY=0.675;entryDx=0;entryDy=0;entryPerimeter=0;exitX=-0.017;exitY=0.9;exitDx=0;exitDy=0;exitPerimeter=0;" parent="1" edge="1">
          <mxGeometry width="50" height="50" relative="1" as="geometry">
            <mxPoint x="675" y="440" as="sourcePoint" />
            <mxPoint x="480" y="440" as="targetPoint" />
          </mxGeometry>
        </mxCell>
        <mxCell id="ZbjjQLHiwqAhtuJhAiKU-33" value="" style="endArrow=classic;html=1;rounded=0;entryX=1.038;entryY=0.675;entryDx=0;entryDy=0;entryPerimeter=0;exitX=-0.017;exitY=0.9;exitDx=0;exitDy=0;exitPerimeter=0;" parent="1" edge="1">
          <mxGeometry width="50" height="50" relative="1" as="geometry">
            <mxPoint x="675" y="350" as="sourcePoint" />
            <mxPoint x="480" y="350" as="targetPoint" />
          </mxGeometry>
        </mxCell>
        <mxCell id="ZbjjQLHiwqAhtuJhAiKU-34" value="PROCESS" style="text;html=1;align=center;verticalAlign=middle;resizable=0;points=[];autosize=1;strokeColor=none;fillColor=none;" parent="1" vertex="1">
          <mxGeometry x="390" y="88" width="80" height="30" as="geometry" />
        </mxCell>
        <mxCell id="ZbjjQLHiwqAhtuJhAiKU-35" value="DATABASE" style="text;html=1;align=center;verticalAlign=middle;resizable=0;points=[];autosize=1;strokeColor=none;fillColor=none;" parent="1" vertex="1">
          <mxGeometry x="695" y="88" width="90" height="30" as="geometry" />
        </mxCell>
        <mxCell id="ZbjjQLHiwqAhtuJhAiKU-36" value="FIRST LEVEL DFD&lt;br&gt;ADMIN PANEL" style="text;html=1;align=center;verticalAlign=middle;resizable=0;points=[];autosize=1;strokeColor=none;fillColor=none;" parent="1" vertex="1">
          <mxGeometry x="365" y="30" width="130" height="40" as="geometry" />
        </mxCell>
        <mxCell id="ZbjjQLHiwqAhtuJhAiKU-37" value="response" style="text;html=1;align=center;verticalAlign=middle;resizable=0;points=[];autosize=1;strokeColor=none;fillColor=none;" parent="1" vertex="1">
          <mxGeometry x="295" y="138" width="70" height="30" as="geometry" />
        </mxCell>
        <mxCell id="ZbjjQLHiwqAhtuJhAiKU-38" value="response" style="text;html=1;align=center;verticalAlign=middle;resizable=0;points=[];autosize=1;strokeColor=none;fillColor=none;" parent="1" vertex="1">
          <mxGeometry x="295" y="238" width="70" height="30" as="geometry" />
        </mxCell>
        <mxCell id="ZbjjQLHiwqAhtuJhAiKU-39" value="response" style="text;html=1;align=center;verticalAlign=middle;resizable=0;points=[];autosize=1;strokeColor=none;fillColor=none;" parent="1" vertex="1">
          <mxGeometry x="275" y="318" width="70" height="30" as="geometry" />
        </mxCell>
        <mxCell id="ZbjjQLHiwqAhtuJhAiKU-40" value="response" style="text;html=1;align=center;verticalAlign=middle;resizable=0;points=[];autosize=1;strokeColor=none;fillColor=none;" parent="1" vertex="1">
          <mxGeometry x="285" y="408" width="70" height="30" as="geometry" />
        </mxCell>
        <mxCell id="ZbjjQLHiwqAhtuJhAiKU-41" value="response" style="text;html=1;align=center;verticalAlign=middle;resizable=0;points=[];autosize=1;strokeColor=none;fillColor=none;" parent="1" vertex="1">
          <mxGeometry x="265" y="498" width="70" height="30" as="geometry" />
        </mxCell>
        <mxCell id="ZbjjQLHiwqAhtuJhAiKU-42" value="request" style="text;html=1;align=center;verticalAlign=middle;resizable=0;points=[];autosize=1;strokeColor=none;fillColor=none;" parent="1" vertex="1">
          <mxGeometry x="530" y="128" width="60" height="30" as="geometry" />
        </mxCell>
        <mxCell id="ZbjjQLHiwqAhtuJhAiKU-43" value="request" style="text;html=1;align=center;verticalAlign=middle;resizable=0;points=[];autosize=1;strokeColor=none;fillColor=none;" parent="1" vertex="1">
          <mxGeometry x="530" y="218" width="60" height="30" as="geometry" />
        </mxCell>
        <mxCell id="ZbjjQLHiwqAhtuJhAiKU-44" value="request" style="text;html=1;align=center;verticalAlign=middle;resizable=0;points=[];autosize=1;strokeColor=none;fillColor=none;" parent="1" vertex="1">
          <mxGeometry x="520" y="308" width="60" height="30" as="geometry" />
        </mxCell>
        <mxCell id="ZbjjQLHiwqAhtuJhAiKU-45" value="request" style="text;html=1;align=center;verticalAlign=middle;resizable=0;points=[];autosize=1;strokeColor=none;fillColor=none;" parent="1" vertex="1">
          <mxGeometry x="520" y="398" width="60" height="30" as="geometry" />
        </mxCell>
        <mxCell id="ZbjjQLHiwqAhtuJhAiKU-46" value="request" style="text;html=1;align=center;verticalAlign=middle;resizable=0;points=[];autosize=1;strokeColor=none;fillColor=none;" parent="1" vertex="1">
          <mxGeometry x="530" y="488" width="60" height="30" as="geometry" />
        </mxCell>
        <mxCell id="ZbjjQLHiwqAhtuJhAiKU-47" value="request" style="text;html=1;align=center;verticalAlign=middle;resizable=0;points=[];autosize=1;strokeColor=none;fillColor=none;" parent="1" vertex="1">
          <mxGeometry x="290" y="528" width="60" height="30" as="geometry" />
        </mxCell>
        <mxCell id="ZbjjQLHiwqAhtuJhAiKU-48" value="response" style="text;html=1;align=center;verticalAlign=middle;resizable=0;points=[];autosize=1;strokeColor=none;fillColor=none;" parent="1" vertex="1">
          <mxGeometry x="525" y="518" width="70" height="30" as="geometry" />
        </mxCell>
        <mxCell id="ZbjjQLHiwqAhtuJhAiKU-49" value="response" style="text;html=1;align=center;verticalAlign=middle;resizable=0;points=[];autosize=1;strokeColor=none;fillColor=none;" parent="1" vertex="1">
          <mxGeometry x="515" y="438" width="70" height="30" as="geometry" />
        </mxCell>
        <mxCell id="ZbjjQLHiwqAhtuJhAiKU-50" value="response" style="text;html=1;align=center;verticalAlign=middle;resizable=0;points=[];autosize=1;strokeColor=none;fillColor=none;" parent="1" vertex="1">
          <mxGeometry x="525" y="348" width="70" height="30" as="geometry" />
        </mxCell>
        <mxCell id="ZbjjQLHiwqAhtuJhAiKU-51" value="response" style="text;html=1;align=center;verticalAlign=middle;resizable=0;points=[];autosize=1;strokeColor=none;fillColor=none;" parent="1" vertex="1">
          <mxGeometry x="525" y="258" width="70" height="30" as="geometry" />
        </mxCell>
        <mxCell id="ZbjjQLHiwqAhtuJhAiKU-52" value="response" style="text;html=1;align=center;verticalAlign=middle;resizable=0;points=[];autosize=1;strokeColor=none;fillColor=none;" parent="1" vertex="1">
          <mxGeometry x="525" y="168" width="70" height="30" as="geometry" />
        </mxCell>
        <mxCell id="ZbjjQLHiwqAhtuJhAiKU-53" value="request" style="text;html=1;align=center;verticalAlign=middle;resizable=0;points=[];autosize=1;strokeColor=none;fillColor=none;" parent="1" vertex="1">
          <mxGeometry x="300" y="168" width="60" height="30" as="geometry" />
        </mxCell>
        <mxCell id="ZbjjQLHiwqAhtuJhAiKU-54" value="request" style="text;html=1;align=center;verticalAlign=middle;resizable=0;points=[];autosize=1;strokeColor=none;fillColor=none;" parent="1" vertex="1">
          <mxGeometry x="290" y="268" width="60" height="30" as="geometry" />
        </mxCell>
        <mxCell id="ZbjjQLHiwqAhtuJhAiKU-55" value="request" style="text;html=1;align=center;verticalAlign=middle;resizable=0;points=[];autosize=1;strokeColor=none;fillColor=none;" parent="1" vertex="1">
          <mxGeometry x="290" y="358" width="60" height="30" as="geometry" />
        </mxCell>
        <mxCell id="ZbjjQLHiwqAhtuJhAiKU-56" value="request" style="text;html=1;align=center;verticalAlign=middle;resizable=0;points=[];autosize=1;strokeColor=none;fillColor=none;" parent="1" vertex="1">
          <mxGeometry x="280" y="438" width="60" height="30" as="geometry" />
        </mxCell>
      </root>
    </mxGraphModel>
  </diagram>
  <diagram id="nDp3ZcC4MS8cSfZsl5Rt" name="Page-3">
    <mxGraphModel dx="880" dy="478" grid="1" gridSize="10" guides="1" tooltips="1" connect="1" arrows="1" fold="1" page="1" pageScale="1" pageWidth="850" pageHeight="1100" math="0" shadow="0">
      <root>
        <mxCell id="0" />
        <mxCell id="1" parent="0" />
        <mxCell id="fiZAqSygCVs_BNhAlhlL-1" value="USER" style="rounded=0;whiteSpace=wrap;html=1;" vertex="1" parent="1">
          <mxGeometry x="150" y="130" width="120" height="60" as="geometry" />
        </mxCell>
        <mxCell id="fiZAqSygCVs_BNhAlhlL-2" value="shopping cart" style="ellipse;whiteSpace=wrap;html=1;aspect=fixed;" vertex="1" parent="1">
          <mxGeometry x="400" y="210" width="80" height="80" as="geometry" />
        </mxCell>
        <mxCell id="fiZAqSygCVs_BNhAlhlL-3" value="products list" style="ellipse;whiteSpace=wrap;html=1;aspect=fixed;" vertex="1" parent="1">
          <mxGeometry x="400" y="490" width="80" height="80" as="geometry" />
        </mxCell>
        <mxCell id="fiZAqSygCVs_BNhAlhlL-4" value="update" style="ellipse;whiteSpace=wrap;html=1;aspect=fixed;" vertex="1" parent="1">
          <mxGeometry x="400" y="390" width="80" height="80" as="geometry" />
        </mxCell>
        <mxCell id="fiZAqSygCVs_BNhAlhlL-5" value="details" style="ellipse;whiteSpace=wrap;html=1;aspect=fixed;" vertex="1" parent="1">
          <mxGeometry x="400" y="300" width="80" height="80" as="geometry" />
        </mxCell>
        <mxCell id="fiZAqSygCVs_BNhAlhlL-6" value="Login" style="ellipse;whiteSpace=wrap;html=1;aspect=fixed;" vertex="1" parent="1">
          <mxGeometry x="400" y="120" width="80" height="80" as="geometry" />
        </mxCell>
        <mxCell id="fiZAqSygCVs_BNhAlhlL-7" value="product tabe" style="rounded=0;whiteSpace=wrap;html=1;" vertex="1" parent="1">
          <mxGeometry x="680" y="480" width="120" height="60" as="geometry" />
        </mxCell>
        <mxCell id="fiZAqSygCVs_BNhAlhlL-8" value="product table" style="rounded=0;whiteSpace=wrap;html=1;" vertex="1" parent="1">
          <mxGeometry x="680" y="390" width="120" height="60" as="geometry" />
        </mxCell>
        <mxCell id="fiZAqSygCVs_BNhAlhlL-9" value="details table" style="rounded=0;whiteSpace=wrap;html=1;" vertex="1" parent="1">
          <mxGeometry x="670" y="300" width="120" height="60" as="geometry" />
        </mxCell>
        <mxCell id="fiZAqSygCVs_BNhAlhlL-10" value="product table" style="rounded=0;whiteSpace=wrap;html=1;" vertex="1" parent="1">
          <mxGeometry x="680" y="210" width="120" height="60" as="geometry" />
        </mxCell>
        <mxCell id="fiZAqSygCVs_BNhAlhlL-11" value="credentials" style="rounded=0;whiteSpace=wrap;html=1;" vertex="1" parent="1">
          <mxGeometry x="680" y="120" width="120" height="60" as="geometry" />
        </mxCell>
        <mxCell id="fiZAqSygCVs_BNhAlhlL-12" value="" style="endArrow=classic;html=1;rounded=0;exitX=0.108;exitY=1.05;exitDx=0;exitDy=0;exitPerimeter=0;entryX=0;entryY=0.5;entryDx=0;entryDy=0;" edge="1" parent="1" source="fiZAqSygCVs_BNhAlhlL-1" target="fiZAqSygCVs_BNhAlhlL-3">
          <mxGeometry width="50" height="50" relative="1" as="geometry">
            <mxPoint x="450" y="370" as="sourcePoint" />
            <mxPoint x="500" y="320" as="targetPoint" />
            <Array as="points">
              <mxPoint x="160" y="530" />
            </Array>
          </mxGeometry>
        </mxCell>
        <mxCell id="fiZAqSygCVs_BNhAlhlL-13" value="" style="endArrow=classic;html=1;rounded=0;exitX=-0.025;exitY=0.375;exitDx=0;exitDy=0;exitPerimeter=0;entryX=0.175;entryY=1.1;entryDx=0;entryDy=0;entryPerimeter=0;" edge="1" parent="1" source="fiZAqSygCVs_BNhAlhlL-3" target="fiZAqSygCVs_BNhAlhlL-1">
          <mxGeometry width="50" height="50" relative="1" as="geometry">
            <mxPoint x="450" y="370" as="sourcePoint" />
            <mxPoint x="500" y="320" as="targetPoint" />
            <Array as="points">
              <mxPoint x="170" y="520" />
            </Array>
          </mxGeometry>
        </mxCell>
        <mxCell id="fiZAqSygCVs_BNhAlhlL-14" value="" style="endArrow=classic;html=1;rounded=0;exitX=0.333;exitY=1.1;exitDx=0;exitDy=0;exitPerimeter=0;entryX=0;entryY=0.75;entryDx=0;entryDy=0;entryPerimeter=0;" edge="1" parent="1">
          <mxGeometry width="50" height="50" relative="1" as="geometry">
            <mxPoint x="189.96000000000004" y="190" as="sourcePoint" />
            <mxPoint x="400" y="444" as="targetPoint" />
            <Array as="points">
              <mxPoint x="190" y="444" />
            </Array>
          </mxGeometry>
        </mxCell>
        <mxCell id="fiZAqSygCVs_BNhAlhlL-15" value="" style="endArrow=classic;html=1;rounded=0;exitX=0;exitY=0.5;exitDx=0;exitDy=0;entryX=0.5;entryY=1;entryDx=0;entryDy=0;" edge="1" parent="1" source="fiZAqSygCVs_BNhAlhlL-4" target="fiZAqSygCVs_BNhAlhlL-1">
          <mxGeometry width="50" height="50" relative="1" as="geometry">
            <mxPoint x="450" y="370" as="sourcePoint" />
            <mxPoint x="500" y="320" as="targetPoint" />
            <Array as="points">
              <mxPoint x="210" y="430" />
            </Array>
          </mxGeometry>
        </mxCell>
        <mxCell id="fiZAqSygCVs_BNhAlhlL-16" value="" style="endArrow=classic;html=1;rounded=0;exitX=0.625;exitY=1.067;exitDx=0;exitDy=0;exitPerimeter=0;entryX=-0.037;entryY=0.688;entryDx=0;entryDy=0;entryPerimeter=0;" edge="1" parent="1" source="fiZAqSygCVs_BNhAlhlL-1" target="fiZAqSygCVs_BNhAlhlL-5">
          <mxGeometry width="50" height="50" relative="1" as="geometry">
            <mxPoint x="450" y="370" as="sourcePoint" />
            <mxPoint x="500" y="320" as="targetPoint" />
            <Array as="points">
              <mxPoint x="225" y="355" />
            </Array>
          </mxGeometry>
        </mxCell>
        <mxCell id="fiZAqSygCVs_BNhAlhlL-17" value="" style="endArrow=classic;html=1;rounded=0;entryX=0.75;entryY=1;entryDx=0;entryDy=0;exitX=0;exitY=0.5;exitDx=0;exitDy=0;" edge="1" parent="1" source="fiZAqSygCVs_BNhAlhlL-5" target="fiZAqSygCVs_BNhAlhlL-1">
          <mxGeometry width="50" height="50" relative="1" as="geometry">
            <mxPoint x="450" y="370" as="sourcePoint" />
            <mxPoint x="500" y="320" as="targetPoint" />
            <Array as="points">
              <mxPoint x="240" y="340" />
            </Array>
          </mxGeometry>
        </mxCell>
        <mxCell id="fiZAqSygCVs_BNhAlhlL-18" value="" style="endArrow=classic;html=1;rounded=0;exitX=0.875;exitY=1.067;exitDx=0;exitDy=0;exitPerimeter=0;" edge="1" parent="1" source="fiZAqSygCVs_BNhAlhlL-1">
          <mxGeometry width="50" height="50" relative="1" as="geometry">
            <mxPoint x="450" y="370" as="sourcePoint" />
            <mxPoint x="400" y="270" as="targetPoint" />
            <Array as="points">
              <mxPoint x="260" y="270" />
            </Array>
          </mxGeometry>
        </mxCell>
        <mxCell id="fiZAqSygCVs_BNhAlhlL-19" value="" style="endArrow=classic;html=1;rounded=0;exitX=-0.037;exitY=0.65;exitDx=0;exitDy=0;entryX=0.95;entryY=1.067;entryDx=0;entryDy=0;entryPerimeter=0;exitPerimeter=0;" edge="1" parent="1" source="fiZAqSygCVs_BNhAlhlL-2" target="fiZAqSygCVs_BNhAlhlL-1">
          <mxGeometry width="50" height="50" relative="1" as="geometry">
            <mxPoint x="450" y="370" as="sourcePoint" />
            <mxPoint x="270" y="200" as="targetPoint" />
            <Array as="points">
              <mxPoint x="270" y="260" />
            </Array>
          </mxGeometry>
        </mxCell>
        <mxCell id="fiZAqSygCVs_BNhAlhlL-20" value="" style="endArrow=classic;html=1;rounded=0;exitX=1;exitY=0.75;exitDx=0;exitDy=0;entryX=-0.012;entryY=0.75;entryDx=0;entryDy=0;entryPerimeter=0;" edge="1" parent="1" source="fiZAqSygCVs_BNhAlhlL-1" target="fiZAqSygCVs_BNhAlhlL-6">
          <mxGeometry width="50" height="50" relative="1" as="geometry">
            <mxPoint x="450" y="370" as="sourcePoint" />
            <mxPoint x="500" y="320" as="targetPoint" />
          </mxGeometry>
        </mxCell>
        <mxCell id="fiZAqSygCVs_BNhAlhlL-21" value="" style="endArrow=classic;html=1;rounded=0;exitX=0;exitY=0.5;exitDx=0;exitDy=0;" edge="1" parent="1" source="fiZAqSygCVs_BNhAlhlL-6">
          <mxGeometry width="50" height="50" relative="1" as="geometry">
            <mxPoint x="450" y="370" as="sourcePoint" />
            <mxPoint x="280" y="160" as="targetPoint" />
          </mxGeometry>
        </mxCell>
        <mxCell id="fiZAqSygCVs_BNhAlhlL-22" value="" style="endArrow=classic;html=1;rounded=0;entryX=0;entryY=0.5;entryDx=0;entryDy=0;exitX=0.963;exitY=0.325;exitDx=0;exitDy=0;exitPerimeter=0;" edge="1" parent="1" source="fiZAqSygCVs_BNhAlhlL-6" target="fiZAqSygCVs_BNhAlhlL-11">
          <mxGeometry width="50" height="50" relative="1" as="geometry">
            <mxPoint x="450" y="360" as="sourcePoint" />
            <mxPoint x="500" y="310" as="targetPoint" />
          </mxGeometry>
        </mxCell>
        <mxCell id="fiZAqSygCVs_BNhAlhlL-23" value="" style="endArrow=classic;html=1;rounded=0;entryX=1.038;entryY=0.675;entryDx=0;entryDy=0;entryPerimeter=0;exitX=-0.017;exitY=0.9;exitDx=0;exitDy=0;exitPerimeter=0;" edge="1" parent="1" source="fiZAqSygCVs_BNhAlhlL-11" target="fiZAqSygCVs_BNhAlhlL-6">
          <mxGeometry width="50" height="50" relative="1" as="geometry">
            <mxPoint x="450" y="360" as="sourcePoint" />
            <mxPoint x="500" y="310" as="targetPoint" />
          </mxGeometry>
        </mxCell>
        <mxCell id="fiZAqSygCVs_BNhAlhlL-24" value="" style="endArrow=classic;html=1;rounded=0;entryX=0;entryY=0.5;entryDx=0;entryDy=0;exitX=0.963;exitY=0.325;exitDx=0;exitDy=0;exitPerimeter=0;" edge="1" parent="1">
          <mxGeometry width="50" height="50" relative="1" as="geometry">
            <mxPoint x="477" y="238" as="sourcePoint" />
            <mxPoint x="680" y="242" as="targetPoint" />
          </mxGeometry>
        </mxCell>
        <mxCell id="fiZAqSygCVs_BNhAlhlL-25" value="" style="endArrow=classic;html=1;rounded=0;entryX=0;entryY=0.5;entryDx=0;entryDy=0;exitX=0.963;exitY=0.325;exitDx=0;exitDy=0;exitPerimeter=0;" edge="1" parent="1">
          <mxGeometry width="50" height="50" relative="1" as="geometry">
            <mxPoint x="477" y="328" as="sourcePoint" />
            <mxPoint x="680" y="332" as="targetPoint" />
            <Array as="points" />
          </mxGeometry>
        </mxCell>
        <mxCell id="fiZAqSygCVs_BNhAlhlL-26" value="" style="endArrow=classic;html=1;rounded=0;entryX=0;entryY=0.5;entryDx=0;entryDy=0;exitX=0.963;exitY=0.325;exitDx=0;exitDy=0;exitPerimeter=0;" edge="1" parent="1">
          <mxGeometry width="50" height="50" relative="1" as="geometry">
            <mxPoint x="480" y="520" as="sourcePoint" />
            <mxPoint x="683" y="524" as="targetPoint" />
          </mxGeometry>
        </mxCell>
        <mxCell id="fiZAqSygCVs_BNhAlhlL-27" value="" style="endArrow=classic;html=1;rounded=0;entryX=0;entryY=0.5;entryDx=0;entryDy=0;exitX=0.963;exitY=0.325;exitDx=0;exitDy=0;exitPerimeter=0;" edge="1" parent="1">
          <mxGeometry width="50" height="50" relative="1" as="geometry">
            <mxPoint x="477" y="420" as="sourcePoint" />
            <mxPoint x="680" y="424" as="targetPoint" />
          </mxGeometry>
        </mxCell>
        <mxCell id="fiZAqSygCVs_BNhAlhlL-28" value="" style="endArrow=classic;html=1;rounded=0;entryX=1.038;entryY=0.675;entryDx=0;entryDy=0;entryPerimeter=0;exitX=-0.017;exitY=0.9;exitDx=0;exitDy=0;exitPerimeter=0;" edge="1" parent="1">
          <mxGeometry width="50" height="50" relative="1" as="geometry">
            <mxPoint x="675" y="260" as="sourcePoint" />
            <mxPoint x="480" y="260" as="targetPoint" />
          </mxGeometry>
        </mxCell>
        <mxCell id="fiZAqSygCVs_BNhAlhlL-29" value="" style="endArrow=classic;html=1;rounded=0;entryX=1.038;entryY=0.675;entryDx=0;entryDy=0;entryPerimeter=0;exitX=0;exitY=0.5;exitDx=0;exitDy=0;" edge="1" parent="1" source="fiZAqSygCVs_BNhAlhlL-7">
          <mxGeometry width="50" height="50" relative="1" as="geometry">
            <mxPoint x="665" y="509.5" as="sourcePoint" />
            <mxPoint x="470" y="509.5" as="targetPoint" />
          </mxGeometry>
        </mxCell>
        <mxCell id="fiZAqSygCVs_BNhAlhlL-30" value="" style="endArrow=classic;html=1;rounded=0;entryX=1.038;entryY=0.675;entryDx=0;entryDy=0;entryPerimeter=0;exitX=-0.017;exitY=0.9;exitDx=0;exitDy=0;exitPerimeter=0;" edge="1" parent="1">
          <mxGeometry width="50" height="50" relative="1" as="geometry">
            <mxPoint x="675" y="440" as="sourcePoint" />
            <mxPoint x="480" y="440" as="targetPoint" />
          </mxGeometry>
        </mxCell>
        <mxCell id="fiZAqSygCVs_BNhAlhlL-31" value="" style="endArrow=classic;html=1;rounded=0;entryX=1.038;entryY=0.675;entryDx=0;entryDy=0;entryPerimeter=0;exitX=-0.017;exitY=0.9;exitDx=0;exitDy=0;exitPerimeter=0;" edge="1" parent="1">
          <mxGeometry width="50" height="50" relative="1" as="geometry">
            <mxPoint x="675" y="350" as="sourcePoint" />
            <mxPoint x="480" y="350" as="targetPoint" />
          </mxGeometry>
        </mxCell>
        <mxCell id="fiZAqSygCVs_BNhAlhlL-32" value="PROCESS" style="text;html=1;align=center;verticalAlign=middle;resizable=0;points=[];autosize=1;strokeColor=none;fillColor=none;" vertex="1" parent="1">
          <mxGeometry x="390" y="88" width="80" height="30" as="geometry" />
        </mxCell>
        <mxCell id="fiZAqSygCVs_BNhAlhlL-33" value="DATABASE" style="text;html=1;align=center;verticalAlign=middle;resizable=0;points=[];autosize=1;strokeColor=none;fillColor=none;" vertex="1" parent="1">
          <mxGeometry x="695" y="88" width="90" height="30" as="geometry" />
        </mxCell>
        <mxCell id="fiZAqSygCVs_BNhAlhlL-34" value="response" style="text;html=1;align=center;verticalAlign=middle;resizable=0;points=[];autosize=1;strokeColor=none;fillColor=none;" vertex="1" parent="1">
          <mxGeometry x="295" y="138" width="70" height="30" as="geometry" />
        </mxCell>
        <mxCell id="fiZAqSygCVs_BNhAlhlL-35" value="response" style="text;html=1;align=center;verticalAlign=middle;resizable=0;points=[];autosize=1;strokeColor=none;fillColor=none;" vertex="1" parent="1">
          <mxGeometry x="295" y="238" width="70" height="30" as="geometry" />
        </mxCell>
        <mxCell id="fiZAqSygCVs_BNhAlhlL-36" value="response" style="text;html=1;align=center;verticalAlign=middle;resizable=0;points=[];autosize=1;strokeColor=none;fillColor=none;" vertex="1" parent="1">
          <mxGeometry x="275" y="318" width="70" height="30" as="geometry" />
        </mxCell>
        <mxCell id="fiZAqSygCVs_BNhAlhlL-37" value="response" style="text;html=1;align=center;verticalAlign=middle;resizable=0;points=[];autosize=1;strokeColor=none;fillColor=none;" vertex="1" parent="1">
          <mxGeometry x="285" y="408" width="70" height="30" as="geometry" />
        </mxCell>
        <mxCell id="fiZAqSygCVs_BNhAlhlL-38" value="response" style="text;html=1;align=center;verticalAlign=middle;resizable=0;points=[];autosize=1;strokeColor=none;fillColor=none;" vertex="1" parent="1">
          <mxGeometry x="265" y="498" width="70" height="30" as="geometry" />
        </mxCell>
        <mxCell id="fiZAqSygCVs_BNhAlhlL-39" value="request" style="text;html=1;align=center;verticalAlign=middle;resizable=0;points=[];autosize=1;strokeColor=none;fillColor=none;" vertex="1" parent="1">
          <mxGeometry x="530" y="128" width="60" height="30" as="geometry" />
        </mxCell>
        <mxCell id="fiZAqSygCVs_BNhAlhlL-40" value="request" style="text;html=1;align=center;verticalAlign=middle;resizable=0;points=[];autosize=1;strokeColor=none;fillColor=none;" vertex="1" parent="1">
          <mxGeometry x="530" y="218" width="60" height="30" as="geometry" />
        </mxCell>
        <mxCell id="fiZAqSygCVs_BNhAlhlL-41" value="request" style="text;html=1;align=center;verticalAlign=middle;resizable=0;points=[];autosize=1;strokeColor=none;fillColor=none;" vertex="1" parent="1">
          <mxGeometry x="520" y="308" width="60" height="30" as="geometry" />
        </mxCell>
        <mxCell id="fiZAqSygCVs_BNhAlhlL-42" value="request" style="text;html=1;align=center;verticalAlign=middle;resizable=0;points=[];autosize=1;strokeColor=none;fillColor=none;" vertex="1" parent="1">
          <mxGeometry x="520" y="398" width="60" height="30" as="geometry" />
        </mxCell>
        <mxCell id="fiZAqSygCVs_BNhAlhlL-43" value="request" style="text;html=1;align=center;verticalAlign=middle;resizable=0;points=[];autosize=1;strokeColor=none;fillColor=none;" vertex="1" parent="1">
          <mxGeometry x="530" y="488" width="60" height="30" as="geometry" />
        </mxCell>
        <mxCell id="fiZAqSygCVs_BNhAlhlL-44" value="request" style="text;html=1;align=center;verticalAlign=middle;resizable=0;points=[];autosize=1;strokeColor=none;fillColor=none;" vertex="1" parent="1">
          <mxGeometry x="290" y="528" width="60" height="30" as="geometry" />
        </mxCell>
        <mxCell id="fiZAqSygCVs_BNhAlhlL-45" value="response" style="text;html=1;align=center;verticalAlign=middle;resizable=0;points=[];autosize=1;strokeColor=none;fillColor=none;" vertex="1" parent="1">
          <mxGeometry x="525" y="518" width="70" height="30" as="geometry" />
        </mxCell>
        <mxCell id="fiZAqSygCVs_BNhAlhlL-46" value="response" style="text;html=1;align=center;verticalAlign=middle;resizable=0;points=[];autosize=1;strokeColor=none;fillColor=none;" vertex="1" parent="1">
          <mxGeometry x="515" y="438" width="70" height="30" as="geometry" />
        </mxCell>
        <mxCell id="fiZAqSygCVs_BNhAlhlL-47" value="response" style="text;html=1;align=center;verticalAlign=middle;resizable=0;points=[];autosize=1;strokeColor=none;fillColor=none;" vertex="1" parent="1">
          <mxGeometry x="525" y="348" width="70" height="30" as="geometry" />
        </mxCell>
        <mxCell id="fiZAqSygCVs_BNhAlhlL-48" value="response" style="text;html=1;align=center;verticalAlign=middle;resizable=0;points=[];autosize=1;strokeColor=none;fillColor=none;" vertex="1" parent="1">
          <mxGeometry x="525" y="258" width="70" height="30" as="geometry" />
        </mxCell>
        <mxCell id="fiZAqSygCVs_BNhAlhlL-49" value="response" style="text;html=1;align=center;verticalAlign=middle;resizable=0;points=[];autosize=1;strokeColor=none;fillColor=none;" vertex="1" parent="1">
          <mxGeometry x="525" y="168" width="70" height="30" as="geometry" />
        </mxCell>
        <mxCell id="fiZAqSygCVs_BNhAlhlL-50" value="request" style="text;html=1;align=center;verticalAlign=middle;resizable=0;points=[];autosize=1;strokeColor=none;fillColor=none;" vertex="1" parent="1">
          <mxGeometry x="300" y="168" width="60" height="30" as="geometry" />
        </mxCell>
        <mxCell id="fiZAqSygCVs_BNhAlhlL-51" value="request" style="text;html=1;align=center;verticalAlign=middle;resizable=0;points=[];autosize=1;strokeColor=none;fillColor=none;" vertex="1" parent="1">
          <mxGeometry x="290" y="268" width="60" height="30" as="geometry" />
        </mxCell>
        <mxCell id="fiZAqSygCVs_BNhAlhlL-52" value="request" style="text;html=1;align=center;verticalAlign=middle;resizable=0;points=[];autosize=1;strokeColor=none;fillColor=none;" vertex="1" parent="1">
          <mxGeometry x="290" y="358" width="60" height="30" as="geometry" />
        </mxCell>
        <mxCell id="fiZAqSygCVs_BNhAlhlL-53" value="request" style="text;html=1;align=center;verticalAlign=middle;resizable=0;points=[];autosize=1;strokeColor=none;fillColor=none;" vertex="1" parent="1">
          <mxGeometry x="280" y="438" width="60" height="30" as="geometry" />
        </mxCell>
      </root>
    </mxGraphModel>
  </diagram>
</mxfile>
